<svg version="1.0" xmlns="http://www.w3.org/2000/svg" width="933.333" height="933.333" viewBox="0 0 700 700"><path d="M183.4 75.8c-7.6 1.4-12.6 7.3-12.6 14.9 0 5 1.8 8.2 6.6 11.7l2.7 2.1 185 .2 185 .1 5.4 2.6c18.6 9.2 19.2 35.1 1 45.3l-5 2.8-92.1.2c-90.6.2-92.2.2-98.3 2.3-3.5 1.1-8.1 3.2-10.4 4.7-9.6 6.1-17.7 18-19.3 28.8-.4 2.7-.8 22.4-.8 43.7-.1 21.2-.4 38.9-.8 39.3-.4.4-74.8.8-165.3.8H0V624l2.8.1h693.5l3.7-.1V276.4l-170.5.1H358.9l.3-41.2c.3-40.1.4-41.2 2.4-44 1.2-1.5 3.6-3.7 5.3-4.7 3.1-1.8 7-1.9 95.4-2l92.2-.1 7.1-2.6c30.8-11.2 45.5-44.6 32.3-73.7-8-17.8-24.8-30-43.8-31.8-6.1-.6-363.5-1.1-366.7-.6zM87.6 318c8 6.3 9 15 2.6 22.1-3.7 4.1-7.1 4.8-22.8 4.6-12-.1-14-.3-16.7-2.1-6.4-4.4-8.6-10.4-6.4-17.1 2.2-6.6 6.9-9.3 17.2-9.7 11.4-.5 24.1.6 26.1 2.2zm366.3.1c6 3.7 8.4 14.4 4.4 19.7-4.7 6.3-6 6.7-23.3 6.7s-18.6-.4-23.4-6.8c-4.1-5.5-1.6-16.3 4.7-20 2.6-1.4 21.8-2.5 29.8-1.6 3 .4 6.5 1.3 7.8 2zm64.1-.2c9.4 4.9 9.8 19.2.6 24.7-2.7 1.6-5.2 1.9-18.8 1.9-17.1 0-18.4-.4-23.1-6.7-3.9-5.2-1.8-15.7 3.9-19.4 5.2-3.5 31.1-3.8 37.4-.5zm65-.1c9.9 4.7 10.7 18.8 1.3 24.9-2.2 1.5-5.1 1.8-17.2 1.9-16.1.2-19.7-.6-23.7-5.4-5.6-6.4-3.6-17.1 3.9-21.5 2.4-1.3 16.9-2.4 26.2-1.9 3.3.2 7.6 1.1 9.5 2zm67.3.7c7 4.6 8.3 15.2 2.5 21.2-4.5 4.7-7.3 5.3-23.3 5-12.8-.2-14.7-.4-17.2-2.3-8.4-6.3-8.7-18.6-.6-24 5.4-3.6 33.1-3.6 38.6.1zm-485.6.1c4.9 3.7 6.8 7.1 6.7 12.5-.1 5.6-2.2 9.3-7.3 12.3-2.7 1.6-5.3 1.8-18.1 1.8-9.5-.1-15.8-.5-17.2-1.3-7.5-4-10.2-12.4-6.3-19.9 3.3-6.4 8.1-7.8 25.7-7.5 12.1.1 14.2.4 16.5 2.1zm65-.3c4.9 2.6 7.6 7.9 7.1 13.7-1.1 11.1-5.4 13.3-25.6 13.1-15.4-.1-18.3-.8-22-5.6-5.9-7.5-1.9-20 7.2-22.3 1.7-.5 9.1-.8 16.6-.7 10.5.1 14.2.5 16.7 1.8zm66.7.7c4.7 3.3 7 8.5 6.1 13.9-.8 4.7-4.6 9.8-8.4 11.2-1.4.6-9.1 1-17.2 1-13 0-15-.2-18.2-2.1-6.6-3.9-8.8-12.9-4.6-19.7 3.8-6.1 7.1-7 25.1-6.8 12.7.1 13.9.3 17.2 2.5zm65.5-.1c8.6 6.1 8.3 19.2-.6 24.4-2.6 1.5-5.4 1.8-18.1 1.8-15.7 0-18.7-.6-22.3-4.7-2.1-2.4-4-8.3-3.4-10.9.2-1.1.4-2.5.4-3.2.2-2.4 6.3-8.3 9.5-9.1 1.7-.5 9.4-.8 17.2-.7 12.9.1 14.4.3 17.3 2.4zM86.7 384.4c6.7 3.4 9.2 12 5.7 19.2-3.3 6.7-6.5 7.8-23.4 7.8-16 0-19-.9-23.2-6.4-2.2-3-3-9.2-1.6-13.1 1.3-3.6 5.7-7.6 9.6-8.6 5.9-1.5 29.4-.8 32.9 1.1zm211.8.7c9.3 6.4 8.2 20.2-2.1 24.6-3.6 1.6-6.5 1.9-18.4 1.7-13-.2-14.4-.4-17.6-2.6-10.5-7.2-7.5-23.2 4.9-25.7 1.6-.4 8.9-.5 16.3-.5 12.3.2 13.8.4 16.9 2.5zm69.7-.4c6.7 3.9 9.1 12.3 5.4 18.9-3.7 6.6-6.8 7.7-23 7.8-12.3.1-14.6-.1-18.1-1.9-4.5-2.3-8.3-8.1-7.9-12.3.1-1.5.2-3.5.3-4.4.2-2.7 5.2-7.8 9.1-9.1 2.2-.7 8.8-1.1 17.3-1.1 11.4.2 14.2.5 16.9 2.1zm69.9-.7c9.9 5.3 10.6 19.3 1.1 25.2-3.2 2-4.8 2.2-18.8 2.1-15.7 0-16.2-.1-21.4-4.5-3.5-3-5-10.1-3.1-15.1 1.4-3.5 5.7-7.6 8.9-8.3 1.5-.3 3.1-.7 3.5-.8 3.6-.8 27.8.4 29.8 1.4zm71.2.9c9.1 5.6 8.7 19.6-.7 24.4-3 1.6-6 2-15.4 2.1-14.1.2-19.4-.6-23.1-3.6-6.1-5-6.6-15.2-1-20.8 4.2-4.2 6.3-4.6 24.6-4.4 10.5.1 12.6.4 15.6 2.3zm69.7-.3c5.2 3 7.5 6.8 7.5 12.4-.1 5.5-3.8 11.3-8.3 13.2-1.5.6-9.2 1.1-17.3 1.1-12.7 0-15.1-.2-18-1.9-7.9-4.6-9.7-16.5-3.4-22.4 3.9-3.6 8.3-4.5 22.7-4.4 11.4 0 14 .3 16.8 2zm69.5-.3c10.6 5.4 10.7 19.9.2 25.4-2.6 1.3-6.1 1.7-17.8 1.7-12.7 0-15.1-.3-18-2-6.5-3.8-9-12.5-5.5-19.1 3.3-6.5 7.5-7.8 24.7-7.7 10 .1 14.2.5 16.4 1.7zm-491.4.9c9.7 5.4 9.4 20.4-.5 24.8-3 1.4-6.6 1.8-16.5 1.8-6.9.1-14.3-.4-16.5-.9-4.8-1.3-8.3-5-9.7-10.2-1.9-7 2.8-15.3 9.6-17 1.1-.2 8.2-.5 15.9-.6 12.4-.1 14.2.1 17.7 2.1zm69.8-.4c9.7 4.9 10.6 18.1 1.8 24.6-2.6 1.9-4.4 2.1-18.2 2.3-17.3.2-20.2-.6-24.3-6.7-4.5-6.6-1.6-16.4 5.9-20.2 2.8-1.5 6-1.8 17.4-1.8 11.4 0 14.6.3 17.4 1.8zm-139 54.1c7.9 5.6 8.3 16 .9 22.7-3.5 3.2-5.7 3.6-20.8 3.6-10.5-.1-14.6-.4-16.8-1.6-8-4.1-10.1-14.4-4.6-21.3 1.7-2.1 4.5-4.3 6.2-4.8 1.8-.6 9.6-1 17.5-1 13.2.1 14.7.3 17.6 2.4zm70 0c8.6 6.2 8.2 19.1-.8 24.4-4.2 2.5-31.3 2.7-35.9.3-6.7-3.5-9.5-11.9-6.1-18.6 3.7-7.6 7.1-8.7 25.5-8.5 12.9.2 14.5.4 17.3 2.4zm69.7-.4c4.2 2.7 6.2 5.5 6.9 9.7 1.2 6.9-3.2 14.4-9.5 16.3-1.3.4-8.5.7-16 .7-15.9-.2-19.6-1.3-22.9-7.2-3.5-6.2-2.6-12.2 2.4-17.3 3.8-3.8 6.9-4.4 22.6-4.2 11.5.1 14.1.4 16.5 2zm70.6.3c6.7 4.2 8.6 13.9 4 20.2-4 5.3-6.9 6.1-22 6.2-16.6 0-19.9-.9-23.6-6.6-4.7-7.3-2.5-16.3 5-20.2 3.6-1.8 5.7-2 18.6-1.9 13 .2 14.9.4 18 2.3zm68.8-1.1c5.3 2.3 9.2 9.4 8.3 15.2-.6 4-4.1 8.8-7.8 10.6-2.8 1.3-6.5 1.6-18.3 1.6-14.4-.1-14.8-.1-18.7-2.9-9.2-6.5-6.8-22.2 3.9-25 4.3-1.1 29.7-.7 32.6.5zm71.6.6c10 5.2 9.4 20-.9 25.4-2.2 1.1-6.6 1.5-17.3 1.5-12.2 0-14.9-.3-17.6-1.9-9-5.3-10.2-16.9-2.4-23.5 3.3-2.8 6.9-3.4 21.5-3.3 10.5.1 14.3.5 16.7 1.8zm70.4.2c6.7 4 9 13.3 4.7 19.5-4.2 6.4-6.9 7.2-23.4 7.1-12.1-.1-15.2-.5-17.8-1.9-10.1-6-9.8-19.7.7-25 3.1-1.6 5.8-1.8 18-1.7 12.4.1 14.9.4 17.8 2zm70.7.1c7.1 5.4 8.8 13.1 4.2 19.8-4.2 6.1-6.2 6.7-23 6.7-13.6 0-15.3-.2-18.5-2.1-9.4-5.8-8.7-19.5 1.3-24.6 3.6-1.9 5.6-2.1 18.7-1.9 12.9.1 15 .4 17.3 2.1zm66.2-1.7c3.5.2 9.7 6.9 10.5 11.4.6 3 .2 4.9-1.6 8.5-3.7 7.5-6.2 8.4-23.7 8.3-12.6 0-15.5-.3-18.3-1.9-9.6-5.4-9.2-19.7.8-24.7 3.5-1.8 5.7-2.1 16.9-1.9 7.2.1 14.1.2 15.4.3zM88.1 492.6c3.8 2.6 4.4 3.5 5.9 8.7.9 3-.9 9.7-3.2 12.1-4.6 4.5-6.7 5-21.2 5.2-14.5.1-17.3-.4-21.4-4-9-7.9-4.5-22.6 7.4-24.5 2-.3 9.3-.5 16.2-.3 11.7.2 12.9.4 16.3 2.8zm68.2-1.1c9.8 4.6 10.6 18.1 1.5 24.6-2.9 2.1-4.4 2.3-16.7 2.5-7.5.1-15.2-.3-17.1-.8-9.5-2.8-13.3-12.7-8.1-21.1 3.9-6.2 7.7-7.3 25.7-7.1 8.2.1 11.9.6 14.7 1.9zm70.9.2c7.2 4.2 9.6 12.2 5.8 19-3.8 6.9-6.3 7.7-23.5 7.8-13.9 0-15.3-.2-18.6-2.3-11.2-6.9-7.8-23.4 5.2-26.1 1.6-.3 8.6-.5 15.5-.4 10 .1 13.1.5 15.6 2zm70 0c7.2 4.2 9.6 12.2 5.8 19-3.7 6.7-6.3 7.6-22.8 7.8-13 .2-14.8 0-18.5-1.9-12.1-6.4-9-24.3 4.7-26.8 1.1-.1 7.7-.2 14.8-.1 10.4.1 13.4.5 16 2zm71.4.4c9.2 5.6 8.8 18.8-.6 24.3-3 1.8-5.4 2.1-17 2.2-7.4 0-14.8-.3-16.5-.9-8.9-2.9-12.5-13.1-7.5-21.3 3.9-6.2 6.8-7 24.6-6.7 11.9.2 14 .5 17 2.4zm69.7-.6c2 .9 4.3 3.3 5.7 5.6 3.7 6.8 1.7 14-5.4 19.3-2.5 1.9-4.2 2.1-18 2.1-14.6 0-15.4-.1-18.8-2.5-11.5-7.8-7.4-24.1 6.6-26 8.3-1.1 26.4-.2 29.9 1.5zm66.8-1.1c3.5.6 7.6 4.1 9.8 8.3 2 4 .9 11.6-2.2 14.7-4.5 4.5-6.6 5-21.4 5.1-17.2.2-21-1-24.5-7.8-4.8-9.4 1.1-19.4 12.1-20.7 6.2-.7 21.7-.5 26.2.4zm69-.5c1.4.1 4.1 1.1 6 2.4 9.1 6.1 8.1 19.3-1.8 24.3-3.6 1.8-5.7 2.1-18 1.9-11.9-.1-14.4-.4-17.3-2.1-10-5.8-9.5-20.2 1-25.1 4-1.9 4.6-1.9 30.1-1.4zm74.8 1.5c9.4 4.9 10.2 17.6 1.5 24.3-3.6 2.7-3.9 2.7-18.2 2.8-12.8.1-15-.1-18.6-1.9-12.3-6.3-9.4-24.3 4.3-26.5 7-1.2 27.9-.3 31 1.3zM85.2 544.3c6.4 2.8 10.3 10 8.7 16-1.3 4.7-5.6 9.5-9.7 10.8-5.6 1.6-31 .8-34-1.1-3-2-6.4-7.5-6.8-11.2-.7-5.4 3.9-12.7 9.1-14.8 3.7-1.5 29.1-1.2 32.7.3zm281.1.1c11.6 4.9 11.9 20.2.5 26.2-2.3 1.2-21.4 1.4-121.1 1.4-65.2 0-119.8-.3-121.4-.6-6.4-1.3-11.8-8.9-10.8-15.1.8-5 3.2-8.8 7.4-11.2 3.6-2 4-2 122.9-2.1 99.2 0 119.8.2 122.5 1.4zm71.7.5c9.6 5.1 10.5 17.6 1.6 24.2-2.9 2.2-4.1 2.4-18.1 2.7-16.6.3-19.8-.5-23.9-6.1-2.9-4-2.8-12.2.2-16.4 3.8-5.3 7.1-6.3 22.7-6.3 11.8 0 14.6.3 17.5 1.9zm69.9-.1c5.4 2.7 7.6 6.5 7.6 12.7 0 6.2-2.1 9.7-7.5 12.6-2.9 1.6-5.7 1.9-17.3 1.9-15.1 0-18.9-.9-22.5-5.4-4.5-5.9-4-13.7 1.3-19 4.2-4.2 4.6-4.3 21.5-4.5 11.1-.1 14.1.2 16.9 1.7zm69.7-.3c8.5 3.4 11.4 13.9 5.9 21.1-4.5 5.8-6.8 6.5-22.8 6.4-12.4-.2-14.7-.5-17.9-2.3-10-5.5-9-19.8 1.7-25.5 3.3-1.7 28.6-1.5 33.1.3zm71.5.6c7 3.5 9.4 12.8 5.3 19.8-3.6 6-5.6 6.6-22.3 6.8-14.1.2-15.8.1-19.2-1.9-7.8-4.4-9.6-15-3.6-21.7 4-4.3 7.2-5.1 22.2-5 11.6.1 14.6.4 17.6 2z"/></svg>